<?xml version="1.0" standalone="no"?>
<!DOCTYPE svg PUBLIC "-//W3C//DTD SVG 20010904//EN"
 "http://www.w3.org/TR/2001/REC-SVG-20010904/DTD/svg10.dtd">
<svg version="1.0" xmlns="http://www.w3.org/2000/svg"
 width="398.000000pt" height="398.000000pt" viewBox="0 0 398.000000 398.000000"
 preserveAspectRatio="xMidYMid meet">
<metadata>
Created by potrace 1.11, written by Peter Selinger 2001-2013
</metadata>
<g transform="translate(0.000000,398.000000) scale(0.100000,-0.100000)"
fill="#000000" stroke="none">
<path d="M0 3555 l0 -265 288 -3 287 -2 -287 -3 -288 -2 0 -239 c0 -182 3
-241 13 -244 9 -4 9 -6 0 -6 -10 -1 -13 -258 -13 -1211 l0 -1210 78 0 78 0 95
-91 c51 -50 93 -95 91 -101 -2 -6 9 -9 27 -6 22 3 31 0 34 -14 3 -10 9 -18 15
-18 6 0 5 16 -2 40 -8 32 -14 40 -31 38 -12 -2 -19 2 -18 10 4 15 -9 16 -25 0
-9 -9 -12 -8 -12 4 0 26 65 84 117 103 26 10 52 22 57 26 6 5 18 9 27 9 10 0
41 12 71 27 48 25 63 28 158 28 116 0 110 5 91 -70 -5 -22 -13 -61 -16 -87 -3
-27 -11 -48 -17 -48 -6 0 -8 11 -4 28 5 20 4 23 -4 12 -7 -11 -10 -11 -10 -2
0 7 -5 10 -10 7 -7 -4 -6 -13 1 -27 6 -11 8 -35 4 -54 -4 -24 -2 -34 6 -32 13
3 31 -58 24 -80 -4 -10 1 -11 16 -7 14 5 19 3 15 -3 -3 -6 -2 -22 4 -36 8 -23
15 -26 54 -26 30 0 46 5 50 16 3 8 2 12 -3 9 -9 -5 -44 35 -37 43 6 5 114 -47
121 -59 4 -5 296 -9 744 -9 l737 0 67 198 c109 327 129 405 173 702 9 58 19
111 24 119 4 8 11 -25 15 -80 16 -204 28 -251 109 -414 81 -163 85 -168 164
-221 47 -31 59 -35 93 -29 49 9 106 -10 115 -37 8 -27 74 -88 94 -88 17 0 124
-36 153 -52 20 -11 92 -22 227 -37 55 -6 103 -19 137 -35 29 -14 60 -26 68
-26 13 0 15 121 15 1039 0 819 -3 1040 -13 1044 -9 4 -9 6 1 6 9 1 12 152 12
722 0 573 -3 720 -12 717 -23 -8 -321 9 -368 22 -41 10 -61 8 -190 -23 -228
-54 -254 -57 -473 -57 -141 0 -207 -3 -207 -11 0 -6 -7 -3 -16 5 -8 9 -20 14
-24 11 -10 -6 -44 24 -53 46 -3 8 -6 5 -6 -8 -1 -13 -4 -23 -7 -23 -8 0 -64
61 -64 70 0 4 -7 14 -17 21 -15 13 -15 12 -4 -9 9 -17 -2 -11 -44 22 -59 49
-80 59 -50 26 26 -28 10 -25 -69 15 -39 19 -78 35 -87 35 -22 0 -33 16 -17 24
7 3 1 3 -13 0 -25 -5 -123 17 -161 37 -22 11 -58 12 -58 1 0 -9 -93 -7 -108 2
-5 3 -12 -3 -15 -13 -3 -11 -17 -21 -40 -25 -19 -4 -40 -13 -46 -20 -6 -7 -37
-16 -69 -20 -65 -7 -154 -34 -164 -49 -8 -13 -44 -12 -133 3 -120 19 -396 60
-485 71 -47 6 -101 17 -120 25 -20 8 -42 16 -50 18 -8 1 -37 10 -65 19 -27 9
-86 21 -130 26 -44 5 -129 16 -190 25 -60 8 -181 17 -267 20 l-158 5 0 -264z
m780 145 c0 -5 -4 -10 -9 -10 -6 0 -13 5 -16 10 -3 6 1 10 9 10 9 0 16 -4 16
-10z m87 -26 c-3 -3 -12 -4 -19 -1 -8 3 -5 6 6 6 11 1 17 -2 13 -5z m983 -134
c-8 -5 -19 -10 -25 -10 -5 0 -3 5 5 10 8 5 20 10 25 10 6 0 3 -5 -5 -10z
m1747 -16 c-3 -3 -12 -4 -19 -1 -8 3 -5 6 6 6 11 1 17 -2 13 -5z m-1552 -20
c19 -16 19 -16 -5 -9 -31 9 -50 25 -29 25 7 0 23 -8 34 -16z m-210 -34 c-3 -5
-11 -10 -16 -10 -6 0 -7 5 -4 10 3 6 11 10 16 10 6 0 7 -4 4 -10z m102 -26
c-3 -3 -12 -4 -19 -1 -8 3 -5 6 6 6 11 1 17 -2 13 -5z m-22 -57 c7 -6 -4 -7
-30 -2 -53 9 -70 26 -19 18 21 -3 44 -10 49 -16z m58 16 c-7 -2 -19 -2 -25 0
-7 3 -2 5 12 5 14 0 19 -2 13 -5z m1515 -9 c-11 -12 -25 -14 -47 -9 -47 10
-37 25 16 25 43 0 46 -1 31 -16z m-1731 0 c-3 -3 -12 -4 -19 -1 -8 3 -5 6 6 6
11 1 17 -2 13 -5z m337 -9 c19 -14 18 -15 -14 -12 -18 1 -35 8 -38 15 -5 17
29 15 52 -3z m376 -15 c51 -27 137 -89 181 -131 56 -54 161 -223 155 -250 0
-4 8 -16 18 -28 11 -12 16 -21 13 -21 -3 0 0 -18 8 -39 7 -22 11 -42 8 -45 -3
-3 4 -42 15 -88 32 -129 37 -259 13 -346 -10 -39 -17 -72 -15 -75 3 -2 -11
-18 -29 -34 -19 -17 -37 -36 -39 -44 -3 -8 -13 14 -23 48 -17 60 -19 63 -59
75 -22 6 -44 11 -48 10 -5 -1 -8 2 -8 8 0 5 -19 20 -43 34 -34 20 -49 24 -78
17 -38 -9 -161 -7 -239 4 -42 6 -56 3 -87 -16 -21 -13 -40 -26 -43 -29 -3 -4
-17 -10 -32 -14 -16 -3 -28 -11 -28 -16 0 -6 -7 -10 -15 -10 -8 0 -15 -5 -15
-11 0 -6 -7 -9 -15 -6 -24 10 -73 -47 -68 -77 4 -20 1 -26 -13 -26 -15 0 -14
-3 6 -13 26 -13 40 -47 19 -47 -7 0 -20 -7 -29 -15 -15 -14 -20 -14 -46 0 -16
8 -41 15 -56 15 -16 0 -28 4 -28 8 0 12 74 52 96 52 18 1 18 1 1 14 -13 10
-15 15 -5 19 9 3 6 7 -7 11 -11 4 -40 18 -65 31 -33 18 -44 30 -43 45 2 12 -3
20 -12 20 -8 0 -29 13 -47 29 -18 15 -44 32 -58 36 -14 4 -37 19 -52 32 -17
17 -34 24 -47 20 -11 -3 -22 0 -24 6 -2 6 -25 11 -53 12 -27 1 -60 7 -73 14
-13 7 -36 11 -52 9 -17 -3 -30 1 -33 9 -4 8 -23 13 -55 13 -44 0 -53 -4 -73
-30 -24 -34 -38 -38 -38 -13 0 15 -2 14 -14 -3 -8 -10 -18 -16 -22 -12 -11 11
20 52 71 93 25 21 43 40 41 43 -5 5 -86 -55 -98 -73 -4 -5 -14 -19 -23 -30
-16 -19 -16 -19 -10 -1 3 11 1 22 -5 26 -16 10 26 86 62 113 45 34 137 83 173
92 17 5 66 11 110 15 l80 7 -80 1 c-75 2 -192 -19 -205 -36 -3 -4 -18 -14 -34
-22 -42 -21 -116 -89 -116 -106 0 -8 -7 -14 -16 -14 -20 0 -11 29 19 67 58 72
112 115 192 154 47 23 84 44 81 46 -3 3 -26 -4 -51 -16 -24 -11 -47 -21 -50
-21 -26 0 -185 -129 -185 -150 0 -6 -6 -10 -14 -10 -8 0 -17 -8 -19 -17 -3
-10 -5 -1 -6 19 -1 31 2 36 15 31 13 -5 15 -2 9 16 -4 14 -1 31 9 46 10 15 12
26 6 30 -6 4 -4 17 5 35 8 16 15 42 15 58 0 16 3 32 7 36 4 4 17 31 28 59 40
99 60 137 73 137 14 0 16 22 2 36 -6 6 -3 14 10 22 22 13 27 3 8 -16 -8 -8 -8
-12 -1 -12 6 0 28 20 49 45 22 25 44 45 50 45 6 0 28 15 50 34 70 59 159 91
188 67 17 -14 69 -16 153 -6 44 5 63 3 68 -6 6 -8 4 -10 -5 -4 -7 4 -16 2 -20
-5 -4 -7 -25 -14 -46 -17 -50 -5 -57 -13 -13 -14 50 -2 72 2 87 13 20 17 27 0
8 -21 -17 -19 -17 -19 3 -14 12 3 28 15 37 27 14 20 16 20 28 3 8 -10 20 -15
30 -11 20 8 11 26 -11 22 -9 -2 -18 3 -20 10 -3 8 8 12 36 12 23 0 41 -3 41
-7 0 -5 29 -8 65 -9 48 -1 65 2 65 12 0 19 15 18 46 -2 28 -19 74 -27 74 -13
0 5 16 9 35 9 24 0 37 6 45 20 8 15 17 19 35 14 14 -3 25 -2 25 4 0 12 54 1
90 -18z m-204 2 c-10 -2 -22 0 -28 6 -6 6 0 7 19 4 21 -5 23 -7 9 -10z m1251
2 c-3 -3 -12 -4 -19 -1 -8 3 -5 6 6 6 11 1 17 -2 13 -5z m-2479 -99 c2 -1 -97
-1 -220 2 -123 3 -225 7 -228 10 -3 3 79 3 182 1 103 -2 185 -1 182 3 -4 7 77
-8 84 -16z m79 -1 c-3 -3 -12 -4 -19 -1 -8 3 -5 6 6 6 11 1 17 -2 13 -5z m61
-1 c-10 -2 -26 -2 -35 0 -10 3 -2 5 17 5 19 0 27 -2 18 -5z m2429 0 c-20 -2
-52 -2 -70 0 -17 2 0 4 38 4 39 0 53 -2 32 -4z m-2377 -36 c0 -2 -10 -12 -21
-23 -22 -19 -22 -19 -10 4 10 18 31 31 31 19z m1530 -7 c0 -5 -2 -10 -4 -10
-3 0 -8 5 -11 10 -3 6 -1 10 4 10 6 0 11 -4 11 -10z m-1980 -195 c6 -8 9 -19
5 -25 -14 -23 -62 -2 -52 24 8 20 31 21 47 1z m2290 -239 c0 -8 -61 -12 -66
-4 -3 4 11 8 30 8 20 0 36 -2 36 -4z m-2623 -12 c-3 -3 -12 -4 -19 -1 -8 3 -5
6 6 6 11 1 17 -2 13 -5z m2528 -4 c3 -5 1 -10 -4 -10 -6 0 -11 5 -11 10 0 6 2
10 4 10 3 0 8 -4 11 -10z m142 -56 c-3 -3 -12 -4 -19 -1 -8 3 -5 6 6 6 11 1
17 -2 13 -5z m-2524 -71 c-7 -2 -19 -2 -25 0 -7 3 -2 5 12 5 14 0 19 -2 13 -5z
m52 -3 c3 -6 -1 -7 -9 -4 -18 7 -21 14 -7 14 6 0 13 -4 16 -10z m-242 -7 c-7
-2 -19 -2 -25 0 -7 3 -2 5 12 5 14 0 19 -2 13 -5z m3390 -10 c-7 -2 -19 -2
-25 0 -7 3 -2 5 12 5 14 0 19 -2 13 -5z m-2940 -10 c-7 -2 -19 -2 -25 0 -7 3
-2 5 12 5 14 0 19 -2 13 -5z m269 -34 c-3 -21 -1 -30 6 -25 6 4 10 -1 9 -12 0
-10 -7 -19 -14 -19 -9 0 -13 15 -13 44 0 24 4 43 8 43 5 0 6 -14 4 -31z m2311
-6 c-7 -2 -21 -2 -30 0 -10 3 -4 5 12 5 17 0 24 -2 18 -5z m-2860 -30 c-7 -2
-19 -2 -25 0 -7 3 -2 5 12 5 14 0 19 -2 13 -5z m-46 -9 c-3 -3 -12 -4 -19 -1
-8 3 -5 6 6 6 11 1 17 -2 13 -5z m2860 0 c-3 -3 -12 -4 -19 -1 -8 3 -5 6 6 6
11 1 17 -2 13 -5z m-2524 -21 c-7 -2 -21 -2 -30 0 -10 3 -4 5 12 5 17 0 24 -2
18 -5z m14 -79 c-3 -3 -12 -4 -19 -1 -8 3 -5 6 6 6 11 1 17 -2 13 -5z m1696
-29 c-7 -21 -13 -19 -13 6 0 11 4 18 10 14 5 -3 7 -12 3 -20z m-1936 -11 c-3
-3 -12 -4 -19 -1 -8 3 -5 6 6 6 11 1 17 -2 13 -5z m-260 -30 c-3 -3 -12 -4
-19 -1 -8 3 -5 6 6 6 11 1 17 -2 13 -5z m1998 -83 c8 -13 -31 -24 -56 -16 -17
6 -19 9 -8 16 18 12 56 11 64 0z m789 -36 c6 -11 13 -22 16 -25 3 -3 6 -11 8
-18 1 -9 -8 -11 -38 -6 -35 6 -45 3 -68 -19 -27 -26 -101 -61 -110 -53 -2 3
-4 17 -4 31 0 14 -6 25 -14 25 -8 0 -14 5 -14 10 0 10 14 14 37 11 7 -1 23 14
35 34 27 42 70 57 112 41 16 -7 34 -21 40 -31z m303 39 c-3 -3 -12 -4 -19 -1
-8 3 -5 6 6 6 11 1 17 -2 13 -5z m66 -1 c-7 -2 -21 -2 -30 0 -10 3 -4 5 12 5
17 0 24 -2 18 -5z m360 0 c-18 -2 -48 -2 -65 0 -18 2 -4 4 32 4 36 0 50 -2 33
-4z m-2193 -29 c0 -9 -5 -14 -12 -12 -18 6 -21 28 -4 28 9 0 16 -7 16 -16z
m1176 -19 c0 -19 -4 -35 -8 -35 -4 0 -8 5 -8 11 0 6 -9 8 -20 4 -11 -3 -20 -2
-20 4 0 5 -3 18 -6 28 -4 14 -4 15 4 4 8 -11 14 -11 33 3 13 9 24 16 24 16 1
0 1 -16 1 -35z m-1917 16 c15 -10 10 -76 -7 -93 -10 -10 -52 23 -52 41 0 6 -7
11 -15 11 -15 0 -21 31 -8 43 9 10 66 8 82 -2z m2309 -38 c-10 -2 -26 -2 -35
0 -10 3 -2 5 17 5 19 0 27 -2 18 -5z m169 1 c-3 -3 -12 -4 -19 -1 -8 3 -5 6 6
6 11 1 17 -2 13 -5z m-1441 -88 c12 -8 40 -63 64 -123 52 -128 117 -240 165
-282 50 -43 120 -61 243 -61 127 0 170 -12 227 -62 48 -42 55 -45 55 -23 0 8
5 15 10 15 6 0 10 -13 10 -29 0 -32 -41 -79 -93 -107 -43 -23 -170 -23 -240 0
-40 13 -61 16 -68 9 -14 -14 -5 -31 65 -118 31 -38 56 -75 56 -81 0 -6 7 -17
15 -24 11 -9 13 -16 6 -23 -7 -7 -15 -6 -25 2 -12 10 -14 9 -9 -8 5 -19 1 -21
-38 -21 -29 0 -39 3 -30 9 28 18 -9 20 -69 2 -46 -13 -65 -23 -71 -39 -8 -21
-15 -22 -104 -22 -52 0 -95 3 -95 7 0 4 16 33 37 63 91 138 85 123 97 232 5
46 5 47 -27 53 -18 4 -39 16 -48 27 -15 19 -19 20 -70 8 -30 -8 -72 -12 -94
-11 -38 3 -128 41 -139 60 -4 5 -20 16 -36 25 l-30 14 0 -36 c0 -47 -9 -60
-40 -58 -28 1 -28 4 -32 -149 -1 -55 1 -116 6 -137 12 -51 -5 -68 -59 -56 -22
4 -49 12 -60 17 -11 5 -40 15 -65 22 -63 19 -75 32 -59 67 7 16 25 36 41 45
25 14 27 20 18 37 -6 11 -18 20 -27 20 -13 0 -14 3 -5 12 9 9 7 14 -6 24 -15
12 -15 15 -2 24 16 10 9 13 -27 10 -17 -1 -21 3 -17 14 5 13 -2 16 -35 16 -23
0 -41 3 -41 8 0 4 -14 16 -30 27 -37 25 -38 37 0 68 28 24 176 77 214 77 26 0
102 39 134 69 27 25 85 141 117 231 20 56 85 158 105 164 34 9 87 5 106 -8z
m893 -104 c0 -57 -5 -101 -16 -129 -14 -39 -33 -57 -33 -33 0 21 -19 8 -34
-24 -10 -21 -16 -63 -17 -113 -1 -75 -2 -76 -12 -35 -5 23 -15 42 -22 42 -15
0 -96 106 -87 114 3 3 14 6 24 6 10 0 29 11 42 25 14 15 30 23 38 20 21 -8 56
69 64 140 7 55 27 91 44 80 5 -3 9 -45 9 -93z m306 -12 c3 -5 1 -10 -4 -10 -6
0 -11 5 -11 10 0 6 2 10 4 10 3 0 8 -4 11 -10z m72 4 c-3 -3 -12 -4 -19 -1 -8
3 -5 6 6 6 11 1 17 -2 13 -5z m-131 -41 c-14 -97 -46 -193 -64 -193 -4 0 -14
-17 -21 -37 -8 -20 -26 -47 -42 -61 -28 -23 -38 -55 -20 -66 5 -4 5 -22 1 -43
-5 -20 -7 -41 -4 -45 3 -4 0 -8 -5 -8 -6 0 -11 -5 -11 -11 0 -15 -38 -49 -67
-60 -13 -5 -29 -23 -37 -41 l-14 -33 -1 52 c-1 37 -6 55 -17 61 -11 6 -13 11
-5 16 6 4 11 2 11 -3 0 -6 5 -11 10 -11 6 0 10 21 10 46 0 25 4 53 10 63 5 10
11 45 14 77 8 110 19 174 28 174 6 0 9 -27 7 -62 -4 -58 -2 -63 17 -66 34 -5
113 103 123 169 9 58 31 90 31 45 0 -38 15 -24 31 29 16 55 23 58 15 8z m301
21 c-3 -3 -12 -4 -19 -1 -8 3 -5 6 6 6 11 1 17 -2 13 -5z m12 -30 c2 -2 -16
-4 -42 -4 -25 0 -48 4 -51 9 -5 8 84 3 93 -5z m-122 0 c-3 -3 -12 -4 -19 -1
-8 3 -5 6 6 6 11 1 17 -2 13 -5z m393 -4 c0 -5 -9 -10 -20 -10 -11 0 -20 5
-20 10 0 6 9 10 20 10 11 0 20 -4 20 -10z m-3477 -37 c-7 -2 -19 -2 -25 0 -7
3 -2 5 12 5 14 0 19 -2 13 -5z m3430 0 c-7 -2 -19 -2 -25 0 -7 3 -2 5 12 5 14
0 19 -2 13 -5z m-403 -43 c0 -5 -7 -10 -15 -10 -8 0 -15 5 -15 10 0 6 7 10 15
10 8 0 15 -4 15 -10z m563 3 c-7 -2 -19 -2 -25 0 -7 3 -2 5 12 5 14 0 19 -2
13 -5z m60 -10 c-7 -2 -19 -2 -25 0 -7 3 -2 5 12 5 14 0 19 -2 13 -5z m-2654
-38 l44 -7 -26 -22 c-13 -11 -32 -35 -42 -52 -20 -35 -63 -68 -52 -40 4 9 3
16 -1 16 -5 0 -14 16 -21 35 -11 31 -10 39 4 61 10 16 23 23 33 20 9 -2 37 -8
61 -11z m1968 -11 c-3 -3 -12 -4 -19 -1 -8 3 -5 6 6 6 11 1 17 -2 13 -5z m46
-11 c-7 -2 -19 -2 -25 0 -7 3 -2 5 12 5 14 0 19 -2 13 -5z m570 -20 c-7 -2
-19 -2 -25 0 -7 3 -2 5 12 5 14 0 19 -2 13 -5z m-70 -10 c-7 -2 -21 -2 -30 0
-10 3 -4 5 12 5 17 0 24 -2 18 -5z m114 1 c-3 -3 -12 -4 -19 -1 -8 3 -5 6 6 6
11 1 17 -2 13 -5z m-64 -11 c-7 -2 -19 -2 -25 0 -7 3 -2 5 12 5 14 0 19 -2 13
-5z m-3346 -189 c-3 -3 -12 -4 -19 -1 -8 3 -5 6 6 6 11 1 17 -2 13 -5z m2844
-12 c-7 -2 -18 1 -23 6 -8 8 -4 9 13 5 13 -4 18 -8 10 -11z m146 -28 c-3 -3
-12 -4 -19 -1 -8 3 -5 6 6 6 11 1 17 -2 13 -5z m-617 -114 c0 -14 -9 -31 -20
-38 -17 -10 -20 -10 -20 4 0 8 4 13 9 10 13 -9 22 22 15 52 -4 21 -3 24 5 12
6 -8 11 -26 11 -40z m363 33 c-7 -2 -19 -2 -25 0 -7 3 -2 5 12 5 14 0 19 -2
13 -5z m-2366 -19 c-3 -3 -12 -4 -19 -1 -8 3 -5 6 6 6 11 1 17 -2 13 -5z
m2270 -40 c-3 -3 -12 -4 -19 -1 -8 3 -5 6 6 6 11 1 17 -2 13 -5z m-262 -33 c3
-5 1 -12 -5 -16 -5 -3 -10 1 -10 9 0 18 6 21 15 7z m108 2 c-7 -2 -21 -2 -30
0 -10 3 -4 5 12 5 17 0 24 -2 18 -5z m592 -42 c15 -7 11 -9 -17 -9 -21 0 -38
4 -38 9 0 11 28 11 55 0z m378 -28 c-7 -2 -19 -2 -25 0 -7 3 -2 5 12 5 14 0
19 -2 13 -5z m-856 -19 c-3 -3 -12 -4 -19 -1 -8 3 -5 6 6 6 11 1 17 -2 13 -5z
m560 -30 c-3 -3 -12 -4 -19 -1 -8 3 -5 6 6 6 11 1 17 -2 13 -5z m-1054 -45 c6
-23 -9 -16 -23 11 -8 16 -7 18 4 14 8 -3 16 -14 19 -25z m1360 24 c-7 -2 -19
-2 -25 0 -7 3 -2 5 12 5 14 0 19 -2 13 -5z m-530 -60 c-7 -2 -19 -2 -25 0 -7
3 -2 5 12 5 14 0 19 -2 13 -5z m374 -19 c-3 -3 -12 -4 -19 -1 -8 3 -5 6 6 6
11 1 17 -2 13 -5z m-1177 -56 c0 -5 -4 -8 -10 -8 -5 0 -10 10 -10 23 0 18 2
19 10 7 5 -8 10 -18 10 -22z m-47 -48 c-11 -12 -16 -32 -15 -51 3 -20 -2 -35
-12 -42 -22 -16 -11 -77 13 -77 17 0 57 39 54 51 -1 4 7 5 17 2 13 -3 20 0 20
8 0 11 2 11 9 -1 6 -8 7 -18 5 -22 -3 -4 -1 -8 5 -8 5 0 13 5 16 10 3 6 10 10
16 10 14 0 11 -26 -6 -40 -8 -7 -15 -23 -15 -35 0 -13 -13 -37 -30 -53 -16
-17 -30 -36 -30 -42 0 -7 -8 -10 -19 -7 -14 3 -40 -17 -96 -75 -50 -50 -89
-81 -107 -85 -16 -3 -26 -8 -23 -11 2 -3 0 -11 -6 -19 -14 -16 -53 -17 -79 -1
-15 9 -24 9 -43 -1 -15 -8 -31 -10 -39 -5 -7 5 -19 9 -26 10 -20 3 -52 35 -46
45 4 8 -21 6 -83 -7 -32 -6 -30 -40 2 -48 14 -4 23 -11 20 -15 -3 -5 1 -12 7
-14 7 -3 3 -6 -8 -6 -12 -1 -24 -8 -27 -15 -5 -13 -11 -13 -39 2 -25 12 -29
17 -15 20 25 5 21 32 -5 32 -13 0 -35 7 -50 14 -16 9 -28 10 -28 5 0 -6 -10
-10 -22 -9 -41 4 -59 0 -53 -10 3 -5 2 -10 -4 -10 -23 0 -22 24 1 42 14 10 52
43 84 73 44 42 64 55 88 55 47 0 226 89 226 112 0 11 5 16 10 13 6 -3 10 1 10
10 0 9 8 27 17 41 22 34 28 94 10 94 -7 0 -17 -4 -22 -9 -14 -13 -138 -42
-191 -45 -44 -2 -45 -2 -39 23 12 50 39 75 96 88 51 12 110 11 332 -2 69 -4
99 5 65 18 -7 3 6 6 29 6 42 1 42 1 26 -19z m95 -61 c-3 -8 -7 -3 -11 10 -4
17 -3 21 5 13 5 -5 8 -16 6 -23z m-27 -22 c-8 -8 -11 -7 -11 4 0 20 13 34 18
19 3 -7 -1 -17 -7 -23z m87 21 c-2 -6 -10 -14 -16 -16 -7 -2 -10 2 -6 12 7 18
28 22 22 4z m-1018 -318 c0 -5 -4 -10 -10 -10 -5 0 -10 5 -10 10 0 6 5 10 10
10 6 0 10 -4 10 -10z m-759 -330 c7 -28 16 -50 20 -50 3 0 4 -12 2 -27 -4 -25
-3 -26 7 -9 9 13 9 24 1 43 -13 28 -15 76 -2 69 4 -3 16 -34 26 -68 9 -35 21
-67 25 -73 4 -5 12 -25 18 -44 9 -26 9 -31 -1 -23 -17 14 -124 33 -145 25 -16
-7 -16 -6 1 20 19 30 22 63 6 72 -5 4 -8 20 -5 36 3 16 9 43 12 59 8 41 20 30
35 -30z"/>
<path d="M1448 2903 c6 -2 18 -2 25 0 6 3 1 5 -13 5 -14 0 -19 -2 -12 -5z"/>
<path d="M1155 2849 c-4 -6 -5 -12 -2 -15 2 -3 7 2 10 11 7 17 1 20 -8 4z"/>
<path d="M1130 2769 c0 -5 5 -7 10 -4 6 3 10 8 10 11 0 2 -4 4 -10 4 -5 0 -10
-5 -10 -11z"/>
<path d="M1458 2733 c6 -2 18 -2 25 0 6 3 1 5 -13 5 -14 0 -19 -2 -12 -5z"/>
<path d="M1500 2726 c0 -2 7 -7 16 -10 8 -3 12 -2 9 4 -6 10 -25 14 -25 6z"/>
<path d="M1747 1745 c-9 -8 -20 -15 -26 -15 -6 0 -11 -7 -11 -15 0 -9 -6 -18
-14 -21 -15 -6 -33 -60 -27 -79 2 -5 5 -19 6 -29 1 -11 7 -22 14 -24 7 -2 11
2 10 9 -2 8 10 34 26 59 50 76 65 159 22 115z"/>
<path d="M2933 1585 c-15 -17 -17 -35 -3 -35 9 0 30 31 30 44 0 11 -15 6 -27
-9z"/>
<path d="M891 324 c0 -11 3 -14 6 -6 3 7 2 16 -1 19 -3 4 -6 -2 -5 -13z"/>
<path d="M2597 3570 c9 -11 19 -17 21 -15 6 6 -18 35 -29 35 -5 0 -1 -9 8 -20z"/>
<path d="M3060 150 c0 -5 -6 -10 -13 -10 -13 0 -67 -50 -67 -62 0 -3 -14 -21
-31 -39 l-32 -34 74 -3 c45 -2 75 1 77 8 5 14 29 13 35 -2 4 -10 8 -9 16 2 16
23 13 29 -11 22 -21 -5 -22 -4 -8 13 14 17 13 18 -15 11 -20 -4 -25 -4 -16 3
12 8 13 12 1 26 -11 13 -10 18 5 29 11 8 16 20 12 30 -7 17 -27 22 -27 6z"/>
<path d="M571 121 c-7 -5 -12 -14 -10 -20 2 -6 10 -2 17 9 14 22 13 23 -7 11z"/>
<path d="M622 121 c-8 -5 -12 -19 -10 -32 l3 -24 13 23 c16 28 12 45 -6 33z"/>
<path d="M300 15 c-11 -13 -8 -15 19 -15 36 0 39 5 12 19 -14 8 -22 7 -31 -4z"/>
<path d="M3740 15 c-7 -8 -8 -15 -2 -15 5 0 15 7 22 15 7 8 8 15 2 15 -5 0
-15 -7 -22 -15z"/>
<path d="M3150 10 c0 -5 5 -10 10 -10 6 0 10 5 10 10 0 6 -4 10 -10 10 -5 0
-10 -4 -10 -10z"/>
</g>
</svg>
